<mxfile host="app.diagrams.net" modified="2023-11-09T15:54:42.765Z" agent="Mozilla/5.0 (Windows NT 10.0; Win64; x64; rv:109.0) Gecko/20100101 Firefox/119.0" etag="92zaMKYPuGrkLza4NZce" version="22.1.0" type="device">
  <diagram name="Seite-1" id="Buf-V82mNLHq6IPBUSCK">
    <mxGraphModel dx="876" dy="539" grid="1" gridSize="10" guides="1" tooltips="1" connect="1" arrows="1" fold="1" page="0" pageScale="1" pageWidth="827" pageHeight="1169" math="0" shadow="0">
      <root>
        <mxCell id="0" />
        <mxCell id="1" parent="0" />
        <mxCell id="10NsXPcwAe8AEz9bs2Zb-2" value="Verhaltensdiagramme" style="rounded=0;whiteSpace=wrap;html=1;shadow=1;" parent="1" vertex="1">
          <mxGeometry x="450" y="110" width="160" height="40" as="geometry" />
        </mxCell>
        <mxCell id="10NsXPcwAe8AEz9bs2Zb-12" value="..." style="rounded=0;whiteSpace=wrap;html=1;strokeColor=none;fillColor=none;" parent="1" vertex="1">
          <mxGeometry x="580" y="200" width="60" height="30" as="geometry" />
        </mxCell>
        <mxCell id="10NsXPcwAe8AEz9bs2Zb-19" value="" style="endArrow=none;html=1;rounded=0;exitX=0.25;exitY=0;exitDx=0;exitDy=0;" parent="1" source="10NsXPcwAe8AEz9bs2Zb-12" target="10NsXPcwAe8AEz9bs2Zb-2" edge="1">
          <mxGeometry width="50" height="50" relative="1" as="geometry">
            <mxPoint x="390" y="320" as="sourcePoint" />
            <mxPoint x="440" y="270" as="targetPoint" />
          </mxGeometry>
        </mxCell>
        <mxCell id="ug7vKBZlFeEZkN51nedK-1" value="Anwendungsfalldiagramm" style="rounded=0;whiteSpace=wrap;html=1;shadow=1;" parent="1" vertex="1">
          <mxGeometry x="380" y="200" width="170" height="40" as="geometry" />
        </mxCell>
        <mxCell id="ug7vKBZlFeEZkN51nedK-2" value="" style="endArrow=none;html=1;rounded=0;" parent="1" source="ug7vKBZlFeEZkN51nedK-1" edge="1" target="10NsXPcwAe8AEz9bs2Zb-2">
          <mxGeometry width="50" height="50" relative="1" as="geometry">
            <mxPoint x="390" y="425" as="sourcePoint" />
            <mxPoint x="526" y="150" as="targetPoint" />
          </mxGeometry>
        </mxCell>
        <mxCell id="lR8ZUNeMJSLDlaDTR2mW-2" value="" style="endArrow=none;html=1;rounded=0;exitX=0.625;exitY=0.2;exitDx=0;exitDy=0;exitPerimeter=0;" parent="1" source="ffY0S0uTbqNNd3IU3IYe-7" target="ug7vKBZlFeEZkN51nedK-1" edge="1">
          <mxGeometry width="50" height="50" relative="1" as="geometry">
            <mxPoint x="410" y="290" as="sourcePoint" />
            <mxPoint x="440" y="300" as="targetPoint" />
          </mxGeometry>
        </mxCell>
        <mxCell id="ffY0S0uTbqNNd3IU3IYe-5" value="" style="ellipse;shape=cloud;whiteSpace=wrap;html=1;fillColor=#006666;fillOpacity=20;strokeColor=none;" vertex="1" parent="1">
          <mxGeometry x="290" y="310" width="190" height="90" as="geometry" />
        </mxCell>
        <mxCell id="ffY0S0uTbqNNd3IU3IYe-6" value="" style="ellipse;shape=cloud;whiteSpace=wrap;html=1;fillColor=#006666;fillOpacity=20;strokeColor=none;" vertex="1" parent="1">
          <mxGeometry x="490" y="290" width="190" height="100" as="geometry" />
        </mxCell>
        <mxCell id="ffY0S0uTbqNNd3IU3IYe-7" value="&lt;div&gt;Nutzerinteraktionen&lt;br&gt;&lt;/div&gt;&lt;div&gt;mit dem System&lt;/div&gt;" style="ellipse;shape=cloud;whiteSpace=wrap;html=1;shadow=1;" vertex="1" parent="1">
          <mxGeometry x="305" y="320" width="160" height="70" as="geometry" />
        </mxCell>
        <mxCell id="ffY0S0uTbqNNd3IU3IYe-8" value="&lt;div&gt;Modellierung von&lt;/div&gt;&lt;div&gt;Tätigkeiten in der&lt;/div&gt;&lt;div&gt;Domäne&lt;br&gt;&lt;/div&gt;" style="ellipse;shape=cloud;whiteSpace=wrap;html=1;shadow=1;spacingTop=7;" vertex="1" parent="1">
          <mxGeometry x="500" y="300" width="170" height="80" as="geometry" />
        </mxCell>
        <mxCell id="ffY0S0uTbqNNd3IU3IYe-9" value="verwenden für" style="text;html=1;strokeColor=none;fillColor=none;align=center;verticalAlign=middle;whiteSpace=wrap;rounded=0;" vertex="1" parent="1">
          <mxGeometry x="440" y="268" width="80" height="20" as="geometry" />
        </mxCell>
        <mxCell id="ffY0S0uTbqNNd3IU3IYe-10" value="" style="endArrow=none;html=1;rounded=0;exitX=0.4;exitY=0.1;exitDx=0;exitDy=0;exitPerimeter=0;" edge="1" parent="1" source="ffY0S0uTbqNNd3IU3IYe-8" target="ug7vKBZlFeEZkN51nedK-1">
          <mxGeometry width="50" height="50" relative="1" as="geometry">
            <mxPoint x="415" y="344" as="sourcePoint" />
            <mxPoint x="464" y="250" as="targetPoint" />
          </mxGeometry>
        </mxCell>
      </root>
    </mxGraphModel>
  </diagram>
</mxfile>
